Coordinates
version=1
nRows=9
nColumns=63
inDegrees=yes

Units are S.I. units (second, meters, Newtons, ...)
If the header above contains a line with 'inDegrees', this indicates whether rotational values are in degrees (yes) or radians (no).

endheader
time	pelvis_tilt	pelvis_list	pelvis_rotation	pelvis_tx	pelvis_ty	pelvis_tz	hip_flexion_r	hip_adduction_r	hip_rotation_r	knee_angle_r	knee_angle_r_beta	ankle_angle_r	subtalar_angle_r	mtp_angle_r	hip_flexion_l	hip_adduction_l	hip_rotation_l	knee_angle_l	knee_angle_l_beta	ankle_angle_l	subtalar_angle_l	mtp_angle_l	L5_S1_Flex_Ext	L5_S1_Lat_Bending	L5_S1_axial_rotation	L4_L5_Flex_Ext	L4_L5_Lat_Bending	L4_L5_axial_rotation	L3_L4_Flex_Ext	L3_L4_Lat_Bending	L3_L4_axial_rotation	L2_L3_Flex_Ext	L2_L3_Lat_Bending	L2_L3_axial_rotation	L1_L2_Flex_Ext	L1_L2_Lat_Bending	L1_L2_axial_rotation	L1_T12_Flex_Ext	L1_T12_Lat_Bending	L1_T12_axial_rotation	Abs_r3	Abs_r2	Abs_r1	Abs_t1	Abs_t2	neck_flexion	neck_bending	neck_rotation	arm_flex_r	arm_add_r	arm_rot_r	elbow_flex_r	pro_sup_r	wrist_flex_r	wrist_dev_r	arm_flex_l	arm_add_l	arm_rot_l	elbow_flex_l	pro_sup_l	wrist_flex_l	wrist_dev_l
      3.52083333	     18.88462055	    -45.20654423	    113.77645001	      0.20904687	      0.75680216	      0.67150676	     65.80609401	     -8.20775080	    -13.04793098	     38.20187650	      0.66674853	     27.55452043	     -3.04440958	      0.00000000	     61.00376214	      0.96712275	     -3.32775727	     19.46984912	      0.33981297	     29.28924754	     17.75679809	      0.00000000	     -0.04231497	      0.45243499	     -0.27489149	     -0.07858314	      0.60173853	     -0.29207221	     -0.06951927	      1.10005043	     -0.29207221	     -0.04836178	      1.10005043	     -0.24053005	     -0.03929369	      0.92260543	     -0.22334933	     -0.02417878	      0.70082179	     -0.20616862	     -0.30225163	      5.11803506	     -1.52886399	      0.00000000	      0.00000000	      7.70308982	     -0.46411634	     -7.06090747	     55.65302776	    -23.90005284	     26.62908450	     50.85304077	     89.09318899	    -43.58633576	    -20.63452152	     19.52384982	    -10.70499957	    154.26420875	      0.25427909	      4.34186348	    -53.79194790	    -22.32447525
      3.54166667	     19.74892776	    -44.86531950	    114.60175098	      0.20785153	      0.75690502	      0.67132396	     65.44556365	     -7.88023852	    -13.14630620	     37.57777066	      0.65585582	     27.21450337	     -2.73417201	      0.00000000	     60.87803078	      0.78353326	     -2.91206699	     19.26416186	      0.33622305	     29.25360601	     17.56060122	      0.00000000	     -0.05578700	      0.55063561	     -0.01562160	     -0.10360204	      0.73234536	     -0.01659795	     -0.09165246	      1.33881542	     -0.01659795	     -0.06375896	      1.33881542	     -0.01366890	     -0.05180381	      1.12285614	     -0.01269255	     -0.03187669	      0.85293456	     -0.01171620	     -0.39848097	      6.22890015	     -0.08688265	      0.00000000	      0.00000000	      7.72315599	     -1.16465086	     -7.85489364	     55.60727123	    -25.64830937	     29.28289724	     47.92030058	     89.09316034	    -44.30916432	    -21.25460320	     20.13779362	     -9.54739332	    154.17324957	      0.24021322	      3.49452022	    -52.19825197	    -22.84087113
      3.56250000	     20.89019552	    -44.41102543	    115.94018461	      0.20612609	      0.75712482	      0.67136232	     64.80981765	     -7.81170415	    -13.96291139	     36.74979342	      0.64140489	     26.86450215	     -1.90301012	      0.00000000	     60.70928194	      0.79715414	     -1.88154927	     18.92031746	      0.33022184	     29.03397330	     17.26870575	      0.00000000	     -0.05602545	      0.68290399	      0.13087096	     -0.10404486	      0.90826231	      0.13905039	     -0.09204421	      1.66041276	      0.13905039	     -0.06403149	      1.66041276	      0.11451209	     -0.05202523	      1.39257781	      0.10633265	     -0.03201294	      1.05781828	      0.09815322	     -0.40018418	      7.72514650	      0.72786500	      0.00000000	      0.00000000	      7.71858922	     -1.57985437	     -8.19461059	     56.00232674	    -27.51972870	     34.66381697	     44.40725228	     89.04750513	    -46.66255855	    -21.24173125	     20.79406888	     -8.29746319	    154.04859825	      0.22101953	      2.57791890	    -51.03623733	    -23.22865099
      3.58333333	     21.71209927	    -43.98193198	    116.82852001	      0.20486315	      0.75744088	      0.67149929	     64.06823224	     -7.66443489	    -14.71586409	     35.88033630	      0.62623001	     26.08888389	     -1.06795082	      0.00000000	     60.31959515	      0.74544609	     -0.97688444	     18.35022606	      0.32027186	     28.70594460	     16.99647103	      0.00000000	     -0.07277657	      0.78539618	      0.23772080	     -0.13515337	      1.04457692	      0.25257834	     -0.11956463	      1.90961228	      0.25257834	     -0.08317634	      1.90961228	      0.20800570	     -0.06758032	      1.60157990	      0.19314815	     -0.04158453	      1.21657869	      0.17829060	     -0.51983575	      8.88455871	      1.32213175	      0.00000000	      0.00000000	      7.83626682	     -1.83707860	     -8.46424235	     56.15077900	    -28.66584095	     40.30198602	     40.93998816	     88.97863103	    -47.64361507	    -20.38970751	     21.31227224	     -7.25075093	    153.55043243	      0.21131909	      2.14606605	    -51.45393175	    -23.43527162
      3.60416667	     22.50022410	    -43.63254233	    117.57880838	      0.20379482	      0.75769224	      0.67187149	     63.31667298	     -7.45511491	    -15.57861311	     34.93155454	      0.60967064	     24.93523174	     -0.46787467	      0.00000000	     59.91204204	      0.64226645	     -0.03054259	     17.62404067	      0.30759754	     28.22915781	     16.73253888	      0.00000000	     -0.08253322	      0.88270025	      0.28496464	     -0.15327245	      1.17399133	      0.30277493	     -0.13559383	      2.14619739	      0.30277493	     -0.09432722	      2.14619739	      0.24934406	     -0.07664035	      1.80000235	      0.23153377	     -0.04715948	      1.36730269	      0.21372348	     -0.58952655	      9.98528179	      1.58488784	      0.00000000	      0.00000000	      8.01608351	     -1.85760744	     -8.18805125	     56.00930872	    -29.23318015	     45.90861606	     38.04804813	     88.88134356	    -46.81193912	    -17.96547955	     21.60561462	     -6.33699164	    152.69521555	      0.20672842	      1.82041784	    -52.26234955	    -23.61302259
      3.62500000	     23.21030629	    -43.41064639	    118.14514277	      0.20296800	      0.75779119	      0.67233855	     62.63305337	     -7.24903884	    -16.65318810	     33.92578348	      0.59211662	     23.93022824	      0.22497907	      0.00000000	     59.57108328	      0.50838608	      0.97074247	     16.81636592	      0.29350095	     27.65761091	     16.38930169	      0.00000000	     -0.08024288	      0.96842633	      0.29089115	     -0.14901905	      1.28800702	      0.30907184	     -0.13183103	      2.35463178	      0.30907184	     -0.09170959	      2.35463178	      0.25452975	     -0.07451354	      1.97481497	      0.23634906	     -0.04585078	      1.50009238	      0.21816836	     -0.57316687	     10.95503231	      1.61784929	      0.00000000	      0.00000000	      8.18443277	     -1.84629243	     -7.52025954	     55.67671910	    -29.43456853	     51.38798240	     35.99824170	     88.79744123	    -44.33264876	    -13.52297255	     21.72664221	     -5.55576341	    151.97773051	      0.20441929	      1.62670628	    -54.53449856	    -23.69778194
      3.64583333	     23.59173553	    -43.27238284	    118.18525209	      0.20267584	      0.75790856	      0.67253991	     61.96711104	     -6.94706961	    -17.59468442	     32.89843895	      0.57418608	     23.42468811	      1.19741843	      0.00000000	     59.24860218	      0.24789418	      1.58275184	     16.15242148	      0.28191294	     27.19678463	     16.08401571	      0.00000000	     -0.08574736	      1.01776559	      0.34164202	     -0.15924142	      1.35362824	      0.36299465	     -0.14087433	      2.47459527	      0.36299465	     -0.09800066	      2.47459527	      0.29893677	     -0.07962500	      2.07542760	      0.27758414	     -0.04899604	      1.57651891	      0.25623152	     -0.61248480	     11.51316796	      1.90011044	      0.00000000	      0.00000000	      8.27583205	     -1.71895645	     -7.15024110	     54.97320551	    -29.53365806	     55.73234090	     34.69104885	     88.69339328	    -39.82720013	     -8.52728411	     21.94618296	     -4.90782955	    152.37578047	      0.20198167	      1.50032146	    -59.66794882	    -23.58299130
      3.66666667	     23.77337898	    -43.13850772	    117.92449666	      0.20250891	      0.75813899	      0.67231663	     61.27077125	     -6.61686294	    -18.46546901	     31.96281322	      0.55785633	     23.39536398	      2.48836729	      0.00000000	     58.89750874	     -0.08320973	      1.96676633	     15.63106942	      0.27281363	     26.85210172	     15.76852675	      0.00000000	     -0.09074198	      1.05190162	      0.48654305	     -0.16851693	      1.39902915	      0.51695199	     -0.14908000	      2.55759360	      0.51695199	     -0.10370901	      2.55759360	      0.42572517	     -0.08426300	      2.14503778	      0.39531623	     -0.05184997	      1.62939561	      0.36490729	     -0.64816089	     11.89932149	      2.70600650	      0.00000000	      0.00000000	      8.15663959	     -1.62336223	     -7.43892434	     53.60847762	    -29.73918487	     58.70423740	     33.62143407	     88.49469549	    -36.78786685	     -4.92811989	     22.52724278	     -4.16100722	    153.87324742	      0.19341268	      1.44050165	    -66.61576565	    -23.25227303
      3.68750000	     23.81859157	    -42.77308949	    117.63150273	      0.20166195	      0.75930253	      0.67149971	     60.20564772	     -6.33081087	    -19.40387684	     30.96318865	      0.54040959	     23.46049421	      3.68930826	      0.00000000	     58.25159859	     -0.36108640	      2.27450584	     15.13937090	      0.26423187	     26.47651303	     15.44559257	      0.00000000	     -0.09931411	      1.11311362	      0.78512741	     -0.18443623	      1.48044111	      0.83419788	     -0.16316315	      2.70642445	      0.83419788	     -0.11350609	      2.70642445	      0.68698649	     -0.09222308	      2.26986129	      0.63791602	     -0.05674808	      1.72421299	      0.58884556	     -0.70939073	     12.59176387	      4.36664314	      0.00000000	      0.00000000	      7.50556063	     -1.91305749	     -8.32521987	     51.42533162	    -30.55840242	     60.56549977	     32.54031960	     88.27923852	    -37.02445304	     -3.20591277	     23.83099366	     -2.90251223	    155.79747481	      0.17074127	      1.36616619	    -68.90448584	    -23.30267932
